<svg width="67" height="67" viewBox="0 0 67 67" fill="none" xmlns="http://www.w3.org/2000/svg">
<path d="M33.5 67C52.0015 67 67 52.0015 67 33.5C67 14.9985 52.0015 0 33.5 0C14.9985 0 0 14.9985 0 33.5C0 52.0015 14.9985 67 33.5 67Z" fill="#2196F3"/>
<path fill-rule="evenodd" clip-rule="evenodd" d="M18.6057 19.3556C23.2925 14.3621 29.9154 12.0213 36.786 12.8819C47.1718 14.2124 55 23.4468 55 34.3651V35.575C55 40.161 51.2329 43.8905 46.6007 43.8905C44.0641 43.8905 41.813 42.7471 40.2718 40.9801C38.7809 42.8012 36.6097 43.8905 34.0017 43.8905C29.0545 43.8905 25.6023 40.0446 25.6023 34.5355C25.6023 29.0265 29.0545 25.1806 34.0017 25.1806C35.6605 25.1806 37.1304 25.6462 38.3819 26.4279C38.7053 25.6961 39.4402 25.1806 40.3012 25.1806C41.4603 25.1806 42.401 26.1119 42.401 27.2595V35.575C42.401 37.8701 44.2824 39.7328 46.6007 39.7328C48.9189 39.7328 50.8003 37.8701 50.8003 35.575V34.3651C50.8003 25.5298 44.547 18.0708 36.2485 17.0064C30.7343 16.3079 25.4301 18.1914 21.684 22.1828C17.9421 26.1784 16.4386 31.596 17.5726 37.051C18.8535 43.2128 23.8595 48.2936 30.033 49.6823C33.9891 50.572 37.9367 50.1313 41.4435 48.4058C42.4892 47.9028 43.7407 48.3144 44.2614 49.3455C44.7738 50.3766 44.3496 51.624 43.3123 52.1354C40.3978 53.5656 37.248 54.2932 34.0185 54.2932C32.3932 54.2932 30.7469 54.1103 29.1006 53.7361C21.2305 51.9649 15.0906 45.7449 13.4569 37.8867C12.05 31.1012 13.9272 24.349 18.6057 19.3556ZM29.802 34.5355C29.802 37.7412 31.4105 39.7327 34.0017 39.7327C36.5929 39.7327 38.2013 37.7412 38.2013 34.5355C38.2013 31.3299 36.5929 29.3383 34.0017 29.3383C31.4105 29.3383 29.802 31.3299 29.802 34.5355Z" fill="#FAFAFA"/>
</svg>
