<svg width="142" height="136" viewBox="0 0 142 136" fill="none" xmlns="http://www.w3.org/2000/svg">
<path d="M127.882 74H21.1176C17.1863 74 14 70.8663 14 67H135C135 70.8663 131.814 74 127.882 74Z" fill="#E8E5DF"/>
<path d="M30.8182 69H59.1818C65.7078 69 71 63.8503 71 57.5V50.4459C71 39.1 61.6518 23 58.8675 23H31.1325C28.3482 23 19 39.1 19 50.4459V57.5C19 63.8503 24.2922 69 30.8182 69Z" fill="#FEBE07"/>
<path d="M62.5071 4.88914L57.6106 7.34099C56.8679 7.71405 55.966 7.50054 55.4669 6.8342L52.3627 2.68834C51.7348 1.85072 50.5119 1.76391 49.7739 2.50298L45.7021 6.5808C44.9618 7.32222 43.7412 7.23541 43.1133 6.39544L40.3371 2.68834C39.7092 1.85072 38.4862 1.76391 37.7483 2.50298L32.9924 7.26591C32.5519 7.70701 31.9053 7.87594 31.3055 7.70466L24.1951 5.67045C22.7308 5.25281 21.4845 6.81073 22.2154 8.15045L30.2466 23H58.3603L64.8616 7.08994C65.4754 5.61883 63.9315 4.17822 62.5071 4.88914Z" fill="#FEBE07"/>
<path d="M59.1737 69C65.7042 69 71 63.8503 71 57.5V50.4459C71 39.1 61.6454 23 58.8591 23H31.1051C29.5251 23 46.1482 23.9913 54.4432 36.8C60.775 46.5773 59.1737 69 59.1737 69Z" fill="#E3A800"/>
<path d="M63.4785 5.1841L60.1278 6.8159C53.6184 13.1769 45.4383 17.7145 36.4455 19.9049L30 21.4744L30.8483 23H59.2842L65.86 7.34906C66.4809 5.90191 64.9193 4.48476 63.4785 5.1841Z" fill="#E3A800"/>
<path d="M64.3333 64.4H35.7018C29.1141 64.4 23.7719 59.2503 23.7719 52.9V45.8459C23.7719 38.2743 27.9712 28.6074 31.6027 23H31.2472C28.4365 23 19 39.1 19 50.4459V57.5C19 63.8503 24.3422 69 30.9298 69H59.5614C64.0876 69 67.9767 66.5413 70 62.9625C68.306 63.8503 66.3948 64.4 64.3333 64.4Z" fill="#E3A800"/>
<path d="M78 5H102V70H78V5Z" fill="#CBE6FE"/>
<path d="M102 32L92.5 41.25L83 50.5H87.75V69H102V32Z" fill="#A9C6EB"/>
<path d="M64.7 32H57V69H78V32H64.7Z" fill="#CBE6FE"/>
<path d="M106 58H115V70H106V58Z" fill="#A9C6EB"/>
<path d="M131.464 65C128.99 65 126.727 66.3571 125.62 68.5064L125.062 69.5926L117.967 83.3704L101.411 90.2593C101.411 85.1867 97.1755 81.0741 91.9511 81.0741H57.8993C44.6669 81.0741 31.7657 85.088 21 92.5556V127H76.8291C88.257 127 99.453 123.882 109.143 118.001C123.794 109.112 133.871 94.6061 136.873 78.0889L137.899 72.4446C138.604 68.5616 135.527 65 131.464 65V65Z" fill="#FFE5CF"/>
<path d="M125 51H97V69H106.333V57.75H115.667V69H125V51Z" fill="#CBE6FE"/>
<path d="M130 50L111 32L101.5 41L92 50H130Z" fill="#E3A800"/>
<path d="M71 32H78V69H71V32Z" fill="#A9C6EB"/>
<path d="M25.932 89C24.25 89.9633 22.5942 90.9802 21 92.0971V127H77L63.5373 125.778C43.4536 123.954 27.7989 108.336 25.932 89V89Z" fill="#F5DCC7"/>
<path d="M50 41.9V39.6C50 38.3304 48.957 37.3 47.6667 37.3H45.3333V35H40.6667V37.3H38.3333C37.043 37.3 36 38.3304 36 39.6V46.5C36 47.7696 37.043 48.8 38.3333 48.8H45.3333V51.1H36V53.4C36 54.6696 37.043 55.7 38.3333 55.7H40.6667V58H45.3333V55.7H47.6667C48.957 55.7 50 54.6696 50 53.4V46.5C50 45.2304 48.957 44.2 47.6667 44.2H40.6667V41.9H50Z" fill="#FEFEFE"/>
<path d="M92.0952 104H54V99.3333H92.0952C96.0333 99.3333 101.619 93.8593 101.619 90L104 92.3333C104 98.7663 98.6595 104 92.0952 104Z" fill="#F5DCC7"/>
<path d="M85.4615 12H87.8461V16.6364H85.4615V12Z" fill="#2B67B3"/>
<path d="M92.6154 12H95V16.6364H92.6154V12Z" fill="#2B67B3"/>
<path d="M85.4615 21.2727H87.8461V25.9091H85.4615V21.2727Z" fill="#2B67B3"/>
<path d="M92.6154 21.2727H95V25.9091H92.6154V21.2727Z" fill="#2B67B3"/>
<path d="M85.4615 30.5455H87.8461V35.1818H85.4615V30.5455Z" fill="#2B67B3"/>
<path d="M92.6154 30.5455H95V35.1818H92.6154V30.5455Z" fill="#2B67B3"/>
<path d="M64 39.8182H66.3846V44.4545H64V39.8182Z" fill="#2B67B3"/>
<path d="M71.1538 39.8182H73.5385V44.4545H71.1538V39.8182Z" fill="#2B67B3"/>
<path d="M64 49.0909H66.3846V53.7272H64V49.0909Z" fill="#2B67B3"/>
<path d="M71.1538 49.0909H73.5385V53.7272H71.1538V49.0909Z" fill="#2B67B3"/>
<path d="M64 58.3636H66.3846V63H64V58.3636Z" fill="#2B67B3"/>
<path d="M71.1538 58.3636H73.5385V63H71.1538V58.3636Z" fill="#2B67B3"/>
<path d="M85.4615 39.8182H87.8461V44.4545H85.4615V39.8182Z" fill="#2B67B3"/>
<path d="M92.6154 39.8182H95V44.4545H92.6154V39.8182Z" fill="#2B67B3"/>
<path d="M121 5H126V10H121V5Z" fill="#FEBE07"/>
<path d="M125 0H130V5H125V0Z" fill="#FEBE07"/>
<path d="M130 5H135V10H130V5Z" fill="#FEBE07"/>
<path d="M125 9H130V14H125V9Z" fill="#FEBE07"/>
<path d="M137 16H142V21H137V16Z" fill="#FEBE07"/>
<path d="M121 23H126V28H121V23Z" fill="#FEBE07"/>
<path d="M0 21H5V26H0V21Z" fill="#FEBE07"/>
<path d="M5 16H10V21H5V16Z" fill="#FEBE07"/>
<path d="M9 21H14V26H9V21Z" fill="#FEBE07"/>
<path d="M5 25H10V30H5V25Z" fill="#FEBE07"/>
<path d="M0 39H5V44H0V39Z" fill="#FEBE07"/>
<path d="M9 0H14V5H9V0Z" fill="#FEBE07"/>
<path d="M18.625 81H4.375C3.064 81 2 82.0267 2 83.2917V133.708C2 134.973 3.064 136 4.375 136H18.625C19.936 136 21 134.973 21 133.708V83.2917C21 82.0267 19.936 81 18.625 81Z" fill="#2B67B3"/>
<path d="M11.5 97C10.12 97 9 95.9547 9 94.6667V92.3333C9 91.0453 10.12 90 11.5 90C12.88 90 14 91.0453 14 92.3333V94.6667C14 95.9547 12.88 97 11.5 97Z" fill="#FEFEFE"/>
</svg>
