<svg width="195" height="160" viewBox="0 0 195 160" fill="none" xmlns="http://www.w3.org/2000/svg">
<path fill-rule="evenodd" clip-rule="evenodd" d="M159.25 160H3.2507C1.45501 160 0 158.806 0 157.334V130.667C0 129.194 1.45501 128 3.2507 128H25.9997V106.666H3.2507C1.45501 106.666 0 105.472 0 103.999V77.3322C0 75.8588 1.45501 74.6649 3.2507 74.6649H79.5374L106.242 33.8913C107.41 32.1054 109.61 30.9335 112.073 30.787C114.654 30.632 117.15 31.5732 118.687 33.281L133.374 49.3433L140.154 45.1696C141.426 44.3884 142.137 43.1347 142.046 41.8322L141.722 37.0298C141.508 33.9463 143.192 30.9811 146.204 29.1305L152.984 24.9568L150.132 21.8366C149.055 20.6586 149.346 18.9862 150.782 18.1024L177.594 1.59814C181.903 -1.0484 188.01 -0.334273 191.244 3.19486L193.05 5.17244C196.28 8.70645 195.407 13.72 191.101 16.3702L164.286 32.8757C163.724 33.2224 163.04 33.4104 162.336 33.4091C162.181 33.4104 162.028 33.4006 161.876 33.3835C161.022 33.2834 160.253 32.9086 159.737 32.3434L156.883 29.2232L150.104 33.3957C148.832 34.1782 148.121 35.4307 148.21 36.7332L148.536 41.5355C148.748 44.6191 147.066 47.5855 144.053 49.4361L137.272 53.6098L151.957 69.6721C153.259 71.1004 153.744 72.9217 153.286 74.6649H159.25C161.046 74.6649 162.501 75.8588 162.501 77.3322V101.333H185.25C187.046 101.333 188.501 102.527 188.501 103.999V130.667C188.501 132.139 187.046 133.333 185.25 133.333H162.501V157.334C162.501 158.806 161.046 160 159.25 160ZM186.044 6.39561C184.966 5.21761 182.929 4.97956 181.495 5.86337L157.279 20.7685L162.984 27.0113L187.2 12.105C188.635 11.2212 188.926 9.5512 187.851 8.37319L186.044 6.39561ZM58.5008 133.333H104V154.667H58.5008V133.333ZM130 106.666H84.5004V128H130V106.666ZM156.001 154.667H110.5V133.333H156.001V154.667ZM136.5 128H182.001V106.666H136.5V128ZM156.001 101.333H110.5V85.8041L143.766 79.9983H156.001V101.333ZM112.562 36.1057C112.309 36.1118 112.08 36.2315 111.97 36.4182L80.7618 84.0621C80.5847 84.3624 80.6368 84.7188 80.8957 84.9752C81.1263 85.2486 81.5279 85.389 81.9281 85.3377L146.405 74.0875C146.655 74.0509 146.859 73.9056 146.936 73.7079C147.06 73.4234 146.991 73.1073 146.758 72.8729L132.072 56.8105L118.665 65.0639C117.228 65.9465 115.191 65.7084 114.114 64.5304C113.037 63.3512 113.328 61.68 114.764 60.7962L128.171 52.5428L113.488 36.4805C113.291 36.2486 112.971 36.1082 112.626 36.1033L112.562 36.1057ZM75.6975 88.1759C77.4292 90.1303 80.4017 91.0617 83.2805 90.5539L104 86.9381V101.333H58.5008V79.9983H76.0427L75.0355 81.5364C73.6429 83.6641 73.9033 86.2631 75.6975 88.1759ZM12.9998 90.6662H6.49992V101.333H52.0008V79.9983H6.49992V85.3329H12.9998C14.7955 85.3329 16.2505 86.5267 16.2505 87.9989C16.2505 89.4724 14.7955 90.6662 12.9998 90.6662ZM32.4996 106.666H78.0005V128H32.4996V106.666ZM52.0008 133.333H6.49992V154.667H52.0008V133.333Z" fill="#3DA6A3"/>
<path d="M42 87.4994C42 86.1192 40.5823 85 38.8326 85H26.1659C24.4177 85 23 86.1192 23 87.4994C23 88.8808 24.4177 90 26.1659 90H38.8326C40.5823 90 42 88.8808 42 87.4994Z" fill="#3DA6A3"/>
</svg>
