<svg width="195" height="126" viewBox="0 0 195 126" fill="none" xmlns="http://www.w3.org/2000/svg">
<path fill-rule="evenodd" clip-rule="evenodd" d="M162.346 34.9275L194.212 76.2327C194.722 76.8954 195 77.7093 195 78.5454V110.06C195 112.156 193.295 113.855 191.191 113.855H176.537C175.438 120.73 169.448 126 162.246 126C155.044 126 149.054 120.73 147.955 113.855H82.7179C81.6199 120.73 75.6303 126 68.4282 126C64.212 126 60.4108 124.193 57.7642 121.317C55.116 124.193 51.3163 126 47.1001 126C39.8965 126 33.9084 120.73 32.809 113.855H16.5808C14.4771 113.855 12.7722 112.156 12.7722 110.06V66.555H3.80859C1.70494 66.555 0 64.8561 0 62.7598C0 60.6651 1.70494 58.9647 3.80859 58.9647H12.7722V3.79518C12.7722 1.69894 14.4771 0 16.5808 0H73.2515C75.3551 0 77.0601 1.69894 77.0601 3.79518C77.0601 5.89143 75.3551 7.59036 73.2515 7.59036H20.3894V58.9647H42.1861V48.3382H31.1412C29.039 48.3382 27.3326 46.6392 27.3326 44.543C27.3326 42.4482 29.039 40.7478 31.1412 40.7478H42.1861V23.9126C42.1861 19.0975 46.1182 15.1807 50.9489 15.1807H101.978C106.81 15.1807 110.741 19.0975 110.741 23.9126V74.7621C110.741 79.5772 106.81 83.494 101.978 83.494H50.9489C46.1182 83.494 42.1861 79.5772 42.1861 74.7621V66.555H20.3894V106.265H33.6495C35.777 100.936 41.0019 97.1566 47.1001 97.1566C51.3163 97.1566 55.116 98.9638 57.7642 101.84C60.4108 98.9638 64.212 97.1566 68.4282 97.1566C74.525 97.1566 79.7499 100.936 81.8788 106.265H132.539V7.59036H101.88C99.7762 7.59036 98.0713 5.89143 98.0713 3.79518C98.0713 1.69894 99.7762 0 101.88 0H136.348C138.451 0 140.156 1.69894 140.156 3.79518V33.4465H159.326C160.508 33.4465 161.624 33.9935 162.346 34.9275ZM82.2775 40.7478V22.7711H70.6509V40.7478H82.2775ZM49.8048 23.9126C49.8048 23.284 50.3181 22.7711 50.9504 22.7711H63.0337V44.543C63.0337 46.6392 64.7401 48.3382 66.8423 48.3382H86.0861C88.1898 48.3382 89.8947 46.6392 89.8947 44.543V22.7711H101.98C102.61 22.7711 103.125 23.284 103.125 23.9126V74.7621C103.125 75.3907 102.61 75.9036 101.98 75.9036H50.9489C50.3181 75.9036 49.8033 75.3907 49.8033 74.7621V23.9126H49.8048ZM187.383 81.9759V79.8352L157.45 41.0369H155.391V78.1807C155.391 80.274 157.099 81.9759 159.199 81.9759H187.383ZM47.1001 118.41C43.3198 118.41 40.2446 115.345 40.2446 111.578C40.2446 107.811 43.3198 104.747 47.1001 104.747C50.8804 104.747 53.9556 107.811 53.9556 111.578C53.9556 115.345 50.8804 118.41 47.1001 118.41ZM61.5728 111.578C61.5728 115.345 64.6479 118.41 68.4282 118.41C72.2086 118.41 75.2837 115.345 75.2837 111.578C75.2837 107.811 72.2086 104.747 68.4282 104.747C64.6479 104.747 61.5728 107.811 61.5728 111.578ZM162.246 118.41C158.466 118.41 155.391 115.345 155.391 111.578C155.391 107.811 158.466 104.747 162.246 104.747C166.026 104.747 169.102 107.811 169.102 111.578C169.102 115.345 166.026 118.41 162.246 118.41ZM162.246 97.1566C168.344 97.1566 173.569 100.936 175.697 106.265H187.383V89.5663H159.199C152.899 89.5663 147.773 84.4591 147.773 78.1807V41.0369H140.156V106.265H148.796C150.923 100.936 156.148 97.1566 162.246 97.1566Z" fill="#3DA6A3"/>
<path d="M82.7836 68H93.2164C95.3063 68 97 66.2094 97 64C97 61.7906 95.3063 60 93.2164 60H82.7836C80.6952 60 79 61.7906 79 64C79 66.2094 80.6937 68 82.7836 68Z" fill="#3DA6A3"/>
<path d="M88.5 8C89.4242 8 90.3238 7.57188 90.9746 6.82812C91.6295 6.08438 92 5.05156 92 4C92 2.94844 91.6295 1.91562 90.9746 1.17188C90.3238 0.428125 89.4242 0 88.5 0C87.5799 0 86.6775 0.428125 86.0268 1.17188C85.3746 1.91562 85 2.94844 85 4C85 5.05156 85.3746 6.08438 86.0268 6.82812C86.6775 7.57188 87.5799 8 88.5 8Z" fill="#3DA6A3"/>
</svg>
