<svg width="101" height="86" viewBox="0 0 101 86" fill="none" xmlns="http://www.w3.org/2000/svg">
<path d="M50 82C75.4051 82 96 64.5391 96 43C96 21.4609 75.4051 4 50 4C24.5949 4 4 21.4609 4 43C4 64.5391 24.5949 82 50 82Z" fill="#FF7043"/>
<path d="M44.783 7.43826C48.4884 6.9909 52.5095 6.9909 56.217 7.43826C56.4211 7.46311 56.6189 7.47554 56.8188 7.47554C58.8788 7.47554 60.6779 6.19737 60.9788 4.42747C61.307 2.48537 59.7078 0.687059 57.4101 0.410123C52.9135 -0.129546 48.0865 -0.129546 43.5941 0.410123C41.2943 0.687059 39.6951 2.48537 40.0234 4.42747C40.3516 6.36779 42.4873 7.72052 44.783 7.43826Z" fill="#012E52"/>
<path d="M73.4565 4.64949C71.386 3.75655 68.8525 4.45067 67.7941 6.19394C66.7379 7.94077 67.5585 10.0781 69.6269 10.9711C83.7858 17.0796 92.5833 29.2009 92.5833 42.6057C92.5833 62.1829 73.7048 78.1103 50.5 78.1103C27.2952 78.1103 8.41667 62.1829 8.41667 42.6057C8.41667 29.2009 17.2142 17.0796 31.3752 10.9729C33.4436 10.0799 34.2642 7.94077 33.2059 6.19572C32.1475 4.44889 29.6098 3.75833 27.5435 4.65127C10.5545 11.9776 0 26.5203 0 42.6057C0 66.0973 22.6535 85.2112 50.5 85.2112C78.3444 85.2112 101 66.0973 101 42.6057C101 26.5203 90.4455 11.9776 73.4565 4.64949Z" fill="#012E52"/>
<path d="M30.6914 50.7465C29.048 52.133 29.048 54.3804 30.6914 55.7669L47.5247 69.9687C48.3453 70.6628 49.4227 71.009 50.5 71.009C51.5773 71.009 52.6526 70.6628 53.4753 69.9687L70.3086 55.7669C71.952 54.3804 71.952 52.133 70.3086 50.7465C68.6653 49.3601 66.0014 49.3601 64.358 50.7465L54.7083 58.8877V17.7521C54.7083 15.7923 52.823 14.2017 50.5 14.2017C48.177 14.2017 46.2917 15.7923 46.2917 17.7521V58.8877L36.642 50.7465C35.0007 49.3601 32.3326 49.3601 30.6914 50.7465Z" fill="#012E52"/>
</svg>
