<svg width="496" height="756" viewBox="0 0 496 756" fill="none" xmlns="http://www.w3.org/2000/svg">
<path d="M408 496H0V386.4L60 328H408V496Z" fill="#08446D"/>
<rect x="160" width="56" height="48" fill="#08446D"/>
<path d="M160 0H216V48" fill="#00233F"/>
<rect x="112" y="16" width="152" height="160" fill="#08446D"/>
<path d="M112 16H264V176" fill="#00233F"/>
<rect x="80" y="72" width="216" height="424" fill="#00233F"/>
<rect x="168" y="112" width="40" height="40" fill="#22EFAB"/>
<path d="M208 112V152H168" fill="#0DD396"/>
<rect x="168" y="168" width="40" height="40" fill="#22EFAB"/>
<path d="M208 168V208H168" fill="#0DD396"/>
<rect x="168" y="224" width="40" height="40" fill="#22EFAB"/>
<path d="M208 224V264H168" fill="#0DD396"/>
<rect x="168" y="280" width="40" height="40" fill="#22EFAB"/>
<path d="M208 280V320H168" fill="#0DD396"/>
<rect x="168" y="336" width="40" height="40" fill="#22EFAB"/>
<path d="M208 336V376H168" fill="#0DD396"/>
<rect x="112" y="168" width="40" height="40" fill="#22EFAB"/>
<path d="M152 168V208H112" fill="#0DD396"/>
<rect x="112" y="224" width="40" height="40" fill="#22EFAB"/>
<path d="M152 224V264H112" fill="#0DD396"/>
<rect x="112" y="280" width="40" height="40" fill="#22EFAB"/>
<path d="M152 280V320H112" fill="#0DD396"/>
<rect x="112" y="336" width="40" height="40" fill="#22EFAB"/>
<path d="M152 336V376H112" fill="#0DD396"/>
<rect x="112" y="112" width="40" height="40" fill="#22EFAB"/>
<path d="M152 112V152H112" fill="#0DD396"/>
<rect x="224" y="112" width="40" height="40" fill="#22EFAB"/>
<path d="M264 112V152H224" fill="#0DD396"/>
<rect x="224" y="168" width="40" height="40" fill="#22EFAB"/>
<path d="M264 168V208H224" fill="#0DD396"/>
<rect x="224" y="224" width="40" height="40" fill="#22EFAB"/>
<path d="M264 224V264H224" fill="#0DD396"/>
<rect x="224" y="280" width="40" height="40" fill="#22EFAB"/>
<path d="M264 280V320H224" fill="#0DD396"/>
<rect x="224" y="336" width="40" height="40" fill="#22EFAB"/>
<path d="M264 336V376H224" fill="#0DD396"/>
<path d="M216 488V424.8C216 419.2 210.4 416 204.8 416H170.4C164.8 416 160 420 160 424.8V488H216Z" fill="#C6640C"/>
<rect x="320" y="200" width="152" height="296" fill="#08446D"/>
<rect x="344" y="152" width="104" height="112" fill="#08446D"/>
<rect x="368" y="96" width="56" height="104" fill="#08446D"/>
<path d="M364 205.6L396 10.4L428 205.6L396 237.6L364 205.6Z" fill="#08446D"/>
<rect x="352" y="232" width="8" height="232" fill="#5A8CA8"/>
<rect x="392" y="232" width="8" height="232" fill="#5A8CA8"/>
<rect x="424" y="232" width="8" height="232" fill="#5A8CA8"/>
<path d="M376 276V318.801C370.961 316.961 365.602 316 360 316C354.398 316 349.039 316.961 344 318.801V276C344 271.602 347.602 268 352 268H368C372.398 268 376 271.602 376 276Z" fill="#E6E9ED"/>
<path d="M376 364C376 372.836 368.836 380 360 380C351.164 380 344 372.836 344 364C344 355.164 351.164 348 360 348C368.836 348 376 355.164 376 364Z" fill="#FCD770"/>
<path fill-rule="evenodd" clip-rule="evenodd" d="M401.84 387.441C405.762 380.559 408 372.559 408 364C408 343.121 394.641 325.281 376 318.801C370.961 316.961 365.602 316 360 316C354.398 316 349.039 316.961 344 318.801C325.359 325.281 312 343.121 312 364C312 372.559 314.238 380.559 318.16 387.441V387.52C324.879 399.441 336.559 408.16 350.32 411.039C353.441 411.68 356.641 412 360 412C363.359 412 366.559 411.68 369.68 411.039C383.441 408.16 395.121 399.441 401.84 387.52V387.441ZM360 348C368.801 348 376 355.199 376 364C376 372.801 368.801 380 360 380C351.199 380 344 372.801 344 364C344 355.199 351.199 348 360 348Z" fill="#B4DD7F"/>
<path fill-rule="evenodd" clip-rule="evenodd" d="M450.398 534.398C447.602 537.121 444 539.039 440 539.68C438.961 539.922 437.922 540 436.801 540C429.039 540 422.078 535.359 419.039 528.238L393.121 466.719C383.441 472.559 372.16 476 360 476C347.84 476 336.559 472.559 326.879 466.719L312 502V652H40V476H280.879L294.32 444H8V684H72V748H488V444H425.68L454.48 512.398C455.52 514.801 456 517.359 456 519.922V520.801C456 526.078 453.84 530.879 450.398 534.398ZM344 588H440H456V684H344V588Z" fill="#E6E9ED"/>
<path d="M456 588V684H344V588H456Z" fill="#FF826E"/>
<path d="M456 519.922V520.801C456 526.078 453.84 530.879 450.398 534.398C447.602 537.121 444 539.039 440 539.68C438.961 539.922 437.922 540 436.801 540C429.039 540 422.078 535.359 419.039 528.238L393.121 466.719L369.68 411.039C383.441 408.16 395.121 399.441 401.84 387.52L425.68 444L454.48 512.398C455.52 514.801 456 517.359 456 519.922Z" fill="#B4DD7F"/>
<path d="M369.68 411.039L393.121 466.719C383.441 472.559 372.16 476 360 476C347.84 476 336.559 472.559 326.879 466.719L350.32 411.039C353.441 411.68 356.641 412 360 412C363.359 412 366.559 411.68 369.68 411.039Z" fill="#E6E9ED"/>
<path d="M350.32 411.039L326.879 466.719L312 502L300.961 528.238C297.922 535.359 290.961 540 283.199 540C282.078 540 281.039 539.922 280 539.68C270.961 538.16 264 530.238 264 520.801V519.922C264 517.359 264.48 514.801 265.52 512.398L280.879 476L294.32 444L318.16 387.52C324.879 399.441 336.559 408.16 350.32 411.039Z" fill="#B4DD7F"/>
<path d="M280 539.68C281.039 539.922 282.078 540 283.199 540C290.961 540 297.922 535.359 300.961 528.238L312 502V652H168V620H128V572H40V540H88C88 531.199 91.6016 523.199 97.3594 517.359C103.199 511.602 111.199 508 120 508V476H152V548H232V476H280.879L265.52 512.398C264.48 514.801 264 517.359 264 519.922V520.801C264 530.238 270.961 538.16 280 539.68Z" fill="#FFEAA7"/>
<path d="M280 596C280 609.254 269.254 620 256 620C242.746 620 232 609.254 232 596C232 582.746 242.746 572 256 572C269.254 572 280 582.746 280 596Z" fill="#E6E9ED"/>
<path d="M232 684H264V716H232V684Z" fill="#FCD770"/>
<path d="M200 684H232V716H200V684Z" fill="#FCD770"/>
<path d="M152 476H232V548H152V476Z" fill="#B4DD7F"/>
<path d="M232 396V444H152V268H232V396Z" fill="#FCD770"/>
<path d="M168 684H200V716H168V684Z" fill="#FCD770"/>
<path d="M136 684H168V716H136V684Z" fill="#FCD770"/>
<path d="M168 620V652H40V572H128V620H168Z" fill="#B4DD7F"/>
<path d="M104 684H136V716H104V684Z" fill="#FCD770"/>
<path d="M120 476V508C111.199 508 103.199 511.602 97.3594 517.359C91.6016 523.199 88 531.199 88 540H40V476H120Z" fill="#B4DD7F"/>
<path d="M88 332H120V444H88V332Z" fill="#FF826E"/>
<path d="M88 284L120 332H56L88 284Z" fill="#AAB2BD"/>
<path d="M56 332H88V444H56V332Z" fill="#FCD770"/>
<path d="M72 684V748L8 684H72Z" fill="#FF826E"/>
<path fill-rule="evenodd" clip-rule="evenodd" d="M384 364C384 377.23 373.23 388 360 388C346.77 388 336 377.23 336 364C336 350.77 346.77 340 360 340C373.23 340 384 350.77 384 364ZM368 364C368 359.594 364.406 356 360 356C355.594 356 352 359.594 352 364C352 368.406 355.594 372 360 372C364.406 372 368 368.406 368 364Z" fill="black"/>
<path fill-rule="evenodd" clip-rule="evenodd" d="M410.664 387.703L431 436H496V756H68.6875L0 687.312V436H48V329.574L88 269.574L128 329.574V436H144V260H240V436H289L309.336 387.703C305.953 380.496 304 372.48 304 364C304 341.719 317.113 322.488 336 313.48V276C336 267.176 343.176 260 352 260H368C376.824 260 384 267.176 384 276V313.48C402.887 322.488 416 341.719 416 364C416 372.48 414.047 380.496 410.664 387.703ZM448 519.879C448 518.375 447.703 516.91 447.121 515.535L399.855 403.281C394.406 408.801 387.824 413.168 380.496 416.062L426.414 525.137C428.176 529.305 432.238 532 436.77 532C442.961 532 448 526.961 448 520.762V519.879ZM448 596V676H352V596H448ZM364.688 419.762C363.137 419.895 361.586 420 360 420C358.414 420 356.863 419.895 355.305 419.762L337.113 462.969C351.566 469.398 368.426 469.398 382.879 462.969L364.688 419.762ZM352 276H368V308.641C365.375 308.266 362.719 308 360 308C357.281 308 354.625 308.266 352 308.641V276ZM400 364C400 341.945 382.055 324 360 324C337.945 324 320 341.945 320 364C320 386.055 337.945 404 360 404C382.055 404 400 386.055 400 364ZM339.504 416.062L293.586 525.129C291.824 529.305 287.762 532 283.23 532C277.039 532 272 526.961 272 520.77V519.887C272 518.383 272.297 516.922 272.879 515.535L320.145 403.289C325.586 408.801 332.176 413.168 339.504 416.062ZM120 580H48V644H160V628H120V580ZM136 612V564H48V548H96V540C96 526.77 106.77 516 120 516H128V484H144V556H240V484H268.793L258.137 509.312C256.719 512.672 256 516.223 256 519.879V520.762C256 531.762 262.594 541.207 272 545.504V568.449C267.273 565.695 261.855 564 256 564C238.352 564 224 578.352 224 596C224 613.648 238.352 628 256 628C273.648 628 288 613.648 288 596V547.535C294.281 546.426 299.93 543.184 304 538.367V644H176V612H136ZM48 484V532H80.8086C83.9922 516.352 96.3516 503.992 112 500.809V484H48ZM224 484V540H160V484H224ZM256 612C264.824 612 272 604.824 272 596C272 587.176 264.824 580 256 580C247.176 580 240 587.176 240 596C240 604.824 247.176 612 256 612ZM160 276H224V292H192V308H224V324H208V340H224V356H192V372H224V388H208V404H224V436H160V276ZM96 340V436H112V340H96ZM70.9453 324L88 298.426L105.055 324H70.9453ZM80 340H64V436H80V340ZM64 728.688L27.3125 692H64V728.688ZM80 740H480V452H437.734L461.863 509.312C463.281 512.672 464 516.223 464 519.879V520.762C464 531.762 457.406 541.207 448 545.504V580H464V692H336V580H432V547.535C423.008 545.945 415.305 539.969 411.672 531.344L389.105 477.754C379.938 481.832 370.039 484 360 484C349.961 484 340.062 481.832 330.895 477.754L320 503.625V660H32V468H275.527L282.266 452H16V676H80V740Z" fill="black"/>
<path fill-rule="evenodd" clip-rule="evenodd" d="M272 724H96V676H272V724ZM176 708H192V692H176V708ZM208 692H224V708H208V692ZM144 708H160V692H144V708ZM256 708H240V692H256V708ZM128 692H112V708H128V692Z" fill="black"/>
<path d="M288 708H464V724H288V708Z" fill="black"/>
</svg>
