<svg width="101" height="56" viewBox="0 0 101 56" fill="none" xmlns="http://www.w3.org/2000/svg">
<path d="M98 2L59.059 33.6314L55 36.9286V48L69.7972 39.8626L62.24 31.9248" fill="#F5C86E"/>
<path d="M41.5695 34.209L13 29.3384L99 1V44L56 36.6692" fill="#FAE196"/>
<path d="M54.9954 48L42 34.6917L98 2L56.2031 35.9476L54.9954 48Z" fill="#F5B955"/>
<path fill-rule="evenodd" clip-rule="evenodd" d="M98.0347 0.153287C98.6419 -0.0479686 99.3957 -0.0512715 100.009 0.1447C100.622 0.340561 101 0.70564 101 1.101V44.3688C101 44.7178 100.704 45.0462 100.204 45.2539C99.8612 45.3958 99.4505 45.4698 99.0347 45.4698C98.8422 45.4698 98.6486 45.4538 98.46 45.4215L71.1837 40.7462L56.6827 48.6863C56.3084 48.8914 55.8126 49 55.3089 49C55.0519 49 54.7931 48.9717 54.5469 48.9137C54.1535 48.821 53.8381 48.6604 53.6276 48.4637C53.6137 48.4537 53.6001 48.4425 53.587 48.4291L40.9758 35.5685L12.3902 30.6688C11.6458 30.5412 11.106 30.1794 11.0139 29.7462C10.9217 29.3129 11.2949 28.8903 11.9649 28.6682L47.0372 17.0488C47.9714 16.7392 49.1766 16.9128 49.7287 17.4361C50.2811 17.9595 49.9716 18.6346 49.0374 18.9442L17.7998 29.2932L41.7359 33.3961L89.8614 5.41919L64.0244 13.9791C63.09 14.2884 61.885 14.115 61.3328 13.5917C60.7805 13.0683 61.09 12.3932 62.0242 12.0838L98.0347 0.153287ZM53.694 36.247L82.8397 12.6743L44.733 34.8268L53.3445 43.6086V36.8739C53.3445 36.6498 53.4665 36.4312 53.694 36.247ZM57.2746 45.2836V38.3622L66.9014 40.0123L57.2746 45.2836ZM97.0699 5.03187L58.4566 36.2621L97.0699 42.8806V5.03187Z" fill="black"/>
<path d="M32.4316 38.3101C31.6735 37.8966 30.4449 37.8966 29.6866 38.3101L11.5684 48.1928C10.8105 48.6062 10.8105 49.2765 11.5684 49.69C11.9477 49.8967 12.4443 50 12.941 50C13.4377 50 13.9343 49.8967 14.3134 49.6899L32.4316 39.8072C33.1895 39.3939 33.1895 38.7236 32.4316 38.3101Z" fill="black"/>
<path d="M4.82401 51.3405L0.54489 54.015C-0.18163 54.469 -0.18163 55.2053 0.54489 55.6595C0.908243 55.8865 1.38434 56 1.86044 56C2.33654 56 2.81264 55.8864 3.17599 55.6594L7.45511 52.9849C8.18163 52.5309 8.18163 51.7946 7.45511 51.3404C6.7284 50.8865 5.55072 50.8865 4.82401 51.3405Z" fill="black"/>
<path d="M27 54C26.4718 54 25.958 54.107 25.586 54.293C25.214 54.479 25 54.736 25 55C25 55.263 25.2138 55.521 25.586 55.707C25.958 55.893 26.474 56 27 56C27.526 56 28.042 55.893 28.4138 55.707C28.7858 55.521 29 55.263 29 55C29 54.736 28.786 54.479 28.4138 54.293C28.042 54.107 27.526 54 27 54Z" fill="black"/>
<path d="M40.5586 46.3374L30.5904 52.0334C29.8032 52.4833 29.8032 53.2127 30.5904 53.6626C30.9841 53.8876 31.5 54 32.0159 54C32.5318 54 33.0477 53.8874 33.4414 53.6626L43.4096 47.9665C44.1968 47.5167 44.1968 46.7872 43.4096 46.3374C42.6227 45.8875 41.3466 45.8875 40.5586 46.3374Z" fill="black"/>
<path d="M73.5652 45.3366L63.5893 51.0371C62.8036 51.4861 62.8036 52.2141 63.5893 52.6632C63.9823 52.8877 64.4971 53 65.012 53C65.5269 53 66.0418 52.8877 66.4348 52.6632L76.4107 46.9627C77.1964 46.5138 77.1964 45.7857 76.4107 45.3366C75.6248 44.8878 74.3511 44.8878 73.5652 45.3366Z" fill="black"/>
<path d="M55 17C55.526 17 56.042 16.894 56.414 16.707C56.7858 16.521 57 16.264 57 16.001C57 15.737 56.786 15.479 56.414 15.293C56.042 15.107 55.526 15 55 15C54.474 15 53.958 15.107 53.586 15.293C53.2142 15.479 53 15.737 53 16.001C53 16.264 53.214 16.521 53.586 16.707C53.958 16.894 54.474 17 55 17Z" fill="black"/>
</svg>
