<svg width="195" height="183" viewBox="0 0 195 183" fill="none" xmlns="http://www.w3.org/2000/svg">
<path fill-rule="evenodd" clip-rule="evenodd" d="M32 92C32 125.635 61.1593 153 97 153C132.841 153 162 125.635 162 92C162 58.3649 132.841 31 97 31C61.1593 31 32 58.3649 32 92ZM38.4999 92C38.4999 61.7297 64.7447 37.0999 97 37.0999C129.255 37.0999 155.5 61.7297 155.5 92C155.5 122.27 129.255 146.9 97 146.9C64.7447 146.9 38.4999 122.27 38.4999 92Z" fill="#3DA6A3"/>
<path d="M98.5 183C96.5682 183 95 181.656 95 179.999V161.999C95 160.343 96.5682 159 98.5 159C100.432 159 102 160.343 102 161.999V179.999C102 181.656 100.432 183 98.5 183Z" fill="#3DA6A3"/>
<path d="M98.5 24C96.5682 24 95 22.6569 95 21.0007V3.00069C95 1.34447 96.5682 0 98.5 0C100.432 0 102 1.34447 102 3.00069V21.0007C102 22.6569 100.432 24 98.5 24Z" fill="#3DA6A3"/>
<path d="M22.7507 94H3.25074C1.45651 94 0 92.6558 0 91C0 89.3442 1.45651 88 3.25074 88H22.7507C24.545 88 26 89.3442 26 91C26 92.6558 24.545 94 22.7507 94Z" fill="#3DA6A3"/>
<path d="M191.749 94H172.249C170.455 94 169 92.6558 169 91C169 89.3442 170.455 88 172.249 88H191.749C193.543 88 195 89.3442 195 91C195 92.6558 193.543 94 191.749 94Z" fill="#3DA6A3"/>
<path fill-rule="evenodd" clip-rule="evenodd" d="M79.6278 136.672C80.0989 136.894 80.6075 137 81.1117 137C82.0404 137 82.9511 136.636 83.5902 135.95L126.199 90.4496C127.04 89.5525 127.237 88.2834 126.703 87.2045C126.169 86.1269 125.006 85.4326 123.72 85.4326H108.175L117.08 49.7172C117.422 48.3592 116.717 46.9595 115.372 46.3291C114.032 45.6987 112.397 45.9931 111.41 47.0484L68.8013 92.5491C67.9596 93.4461 67.763 94.7152 68.2972 95.7942C68.8313 96.8717 69.9941 97.566 71.2799 97.566H86.825L77.9204 133.284C77.5828 134.644 78.2865 136.042 79.6278 136.672ZM90.945 91.4993H78.4575L107.729 60.2398L100.859 87.7835C100.637 88.6875 100.87 89.6345 101.489 90.3551C102.112 91.0772 103.056 91.4993 104.055 91.4993H116.542L87.2706 122.759L94.1377 95.2151C94.3598 94.3112 94.1302 93.3642 93.5076 92.6435C92.8879 91.9214 91.9442 91.4993 90.945 91.4993Z" fill="#3DA6A3"/>
<path d="M163.795 157C162.975 157 162.155 156.7 161.53 156.108L147.939 143.196C146.687 142.006 146.687 140.082 147.939 138.892C149.192 137.703 151.217 137.703 152.47 138.892L166.061 151.804C167.313 152.994 167.313 154.917 166.061 156.108C165.436 156.7 164.615 157 163.795 157Z" fill="#3DA6A3"/>
<path d="M43.7958 45C42.9761 45 42.155 44.7018 41.5303 44.1083L27.9392 31.1964C26.6869 30.0065 26.6869 28.0837 27.9392 26.8924C29.1885 25.7025 31.2164 25.7025 32.4686 26.8924L46.0597 39.8043C47.3134 40.9942 47.3134 42.9184 46.0597 44.1083C45.4351 44.7046 44.6125 45 43.7958 45Z" fill="#3DA6A3"/>
<path d="M30.2046 157C29.3849 157 28.5638 156.7 27.9392 156.108C26.6869 154.917 26.6869 152.994 27.9392 151.804L41.5303 138.892C42.784 137.703 44.8104 137.703 46.0597 138.892C47.3134 140.082 47.3134 142.006 46.0597 143.196L32.4686 156.108C31.8439 156.7 31.0243 157 30.2046 157Z" fill="#3DA6A3"/>
<path d="M150.204 45C149.384 45 148.564 44.7018 147.939 44.1083C146.687 42.9184 146.687 40.9942 147.939 39.8043L161.53 26.8924C162.783 25.7025 164.807 25.7025 166.061 26.8924C167.313 28.0837 167.313 30.0065 166.061 31.1964L152.47 44.1083C151.842 44.7046 151.024 45 150.204 45Z" fill="#3DA6A3"/>
</svg>
