<svg width="102" height="103" viewBox="0 0 102 103" fill="none" xmlns="http://www.w3.org/2000/svg">
<path d="M76.1023 76.6023C90.1612 62.5434 90.3195 39.9077 76.4559 26.0441C62.5923 12.1805 39.9566 12.3388 25.8977 26.3977C11.8389 40.4565 11.6806 63.0922 25.5442 76.9558C39.4078 90.8194 62.0434 90.6611 76.1023 76.6023Z" fill="#526FAA"/>
<path fill-rule="evenodd" clip-rule="evenodd" d="M14 51.5C14 71.6264 30.5983 88 51 88C71.4017 88 88 71.6264 88 51.5C88 31.3736 71.4017 15 51 15C30.5983 15 14 31.3736 14 51.5ZM15.5721 51.5C15.5721 32.2289 31.465 16.5509 51 16.5509C70.535 16.5509 86.4279 32.2289 86.4279 51.5C86.4279 70.771 70.535 86.4491 51 86.4491C31.465 86.4491 15.5721 70.771 15.5721 51.5Z" fill="#690589"/>
<path d="M50.5 63.6799L38.4483 70L40.7502 56.6132L31 47.1326L44.4744 45.1797L50.5 33L56.526 45.1797L70 47.1326L60.2502 56.6132L62.5517 70L50.5 63.6799Z" fill="#FCC24C"/>
<path d="M70 47.3587L67.5179 47L58 56.2286L60.1535 68.7186L62.6043 70L60.3191 56.7455L70 47.3587Z" fill="#DEA42E"/>
<path d="M31 47.3587L33.4824 47L43 56.2286L40.8466 68.7186L38.3955 70L40.681 56.7455L31 47.3587Z" fill="#FCE06A"/>
<path fill-rule="evenodd" clip-rule="evenodd" d="M63.3203 69.9123C63.4352 69.971 63.5608 70 63.6855 70C63.8479 70 64.0099 69.9508 64.1456 69.8543C64.3869 69.6833 64.5081 69.3941 64.4579 69.108L62.2004 56.3069L71.7631 47.2413C71.9769 47.0387 72.0538 46.7354 71.9616 46.4592C71.8694 46.1829 71.6239 45.9815 71.3281 45.9399L58.1133 44.072L52.2037 32.4254C52.0715 32.1648 51.7989 32 51.5 32C51.2011 32 50.9285 32.1648 50.7963 32.4254L44.8867 44.072L31.6719 45.9399C31.3761 45.9819 31.1306 46.1829 31.0384 46.4592C30.9462 46.7354 31.0231 47.0387 31.2369 47.2413L40.7992 56.3069L38.5417 69.108C38.4915 69.3941 38.6127 69.6833 38.854 69.8543C39.096 70.0248 39.4161 70.0473 39.6801 69.9123L51.5004 63.8686L63.3203 69.9123ZM42.1906 55.4943L33.4708 47.2279L45.521 45.5248C45.7772 45.489 45.9976 45.3325 46.1122 45.1074L51.5008 34.4875L56.8894 45.1074C57.004 45.3329 57.2248 45.489 57.4806 45.5248L69.5307 47.2279L60.8109 55.4943C60.6262 55.6694 60.5422 55.9224 60.5854 56.1696L62.644 67.8421L51.866 62.3311C51.6377 62.2144 51.3643 62.2144 51.136 62.3311L40.3576 67.8421L42.4162 56.1696C42.4597 55.9224 42.3754 55.6694 42.1906 55.4943Z" fill="#690589"/>
<path d="M42.661 62C42.6241 62 42.5865 61.9962 42.5488 61.9891C42.1894 61.919 41.9482 61.5312 42.0095 61.1232L42.6888 56.623C42.7508 56.2146 43.0924 55.9419 43.4512 56.0106C43.8106 56.0807 44.0518 56.4685 43.9905 56.8765L43.3112 61.3767C43.2558 61.742 42.9769 62 42.661 62Z" fill="#690589"/>
<path d="M73.7546 84C73.5686 84 73.3823 83.9299 73.2362 83.7886C72.9333 83.4952 72.9201 83.005 73.2061 82.6942C85.2834 69.5789 88.8133 50.3015 82.1995 33.5827L83.5981 33C90.4334 50.2794 86.785 70.2034 74.3032 83.758C74.1549 83.9187 73.955 84 73.7546 84Z" fill="#690589"/>
<path d="M77.7939 67.2343C75.6657 64.7338 72.3419 63.553 69.1177 64.1546C68.8414 64.2059 68.6133 64.4021 68.5199 64.669C67.4322 67.7795 68.0779 71.2654 70.2058 73.7663C71.9666 75.8354 74.547 77 77.211 77C77.7665 77 78.3262 76.9495 78.8824 76.8456C79.1587 76.7943 79.3868 76.5981 79.4802 76.3312C80.5679 73.2208 79.9218 69.7348 77.7939 67.2343Z" fill="#FCE06A"/>
<path d="M81.9425 56.578C79.1761 54.7857 75.5568 54.4982 72.4968 55.8282C72.2343 55.9421 72.0576 56.1777 72.0333 56.4461C71.7498 59.574 73.2915 62.6305 76.0575 64.4223C77.6696 65.4667 79.5713 66 81.4835 66C82.8525 66 84.2268 65.7268 85.5032 65.1721C85.7657 65.0578 85.9424 64.8222 85.9667 64.5542C86.2502 61.426 84.7085 58.3698 81.9425 56.578Z" fill="#FCE06A"/>
<path d="M82.5739 44.8308C79.5635 43.4497 76.021 43.8093 73.3305 45.7697C73.1002 45.9377 72.9758 46.2183 73.0039 46.5054C73.3368 49.8518 75.4142 52.7883 78.4261 54.1693C79.6404 54.7262 80.9411 55 82.237 55C84.1555 55 86.0641 54.4001 87.6695 53.23C87.8998 53.0621 88.0242 52.7814 87.9961 52.4947C87.6632 49.1479 85.5854 46.2115 82.5739 44.8308Z" fill="#FCE06A"/>
<path d="M86.9756 39.7601C86.1563 36.6745 83.6406 34.2149 80.4104 33.3416C77.1814 32.4684 73.6687 33.2975 71.2465 35.506C71.0385 35.6953 70.9539 35.9752 71.0244 36.2395C71.8437 39.3252 74.3594 41.7847 77.5896 42.6584C78.4391 42.8884 79.3083 43 80.1722 43C82.5917 43 84.9684 42.1214 86.7535 40.4936C86.9615 40.3043 87.0461 40.0244 86.9756 39.7601Z" fill="#FCE06A"/>
<path d="M85.4708 24.8149C84.4001 21.7937 81.8227 19.5699 78.7448 19.0117C78.4826 18.9638 78.2128 19.0649 78.0407 19.2771C76.0373 21.7505 75.4585 25.1636 76.5292 28.1852C77.6 31.2064 80.1773 33.4302 83.2553 33.9884C83.2987 33.9965 83.3417 34 83.3851 34C83.6047 34 83.8157 33.9001 83.9594 33.723C85.9624 31.2489 86.5416 27.8357 85.4708 24.8149Z" fill="#FCC24C"/>
<path fill-rule="evenodd" clip-rule="evenodd" d="M77.5896 42.6584C78.4391 42.888 79.3079 43 80.1722 43C82.5917 43 84.9688 42.1214 86.7535 40.4937C86.9615 40.3044 87.0461 40.0245 86.9756 39.7602C86.1563 36.6746 83.6406 34.2151 80.4104 33.3418C77.1818 32.4681 73.6691 33.2976 71.2465 35.5061C71.0385 35.6954 70.9539 35.9753 71.0244 36.2396C71.8437 39.3252 74.3594 41.7847 77.5896 42.6584ZM78.0325 41.1937C75.5067 40.5104 73.5071 38.6565 72.7173 36.3006C74.706 34.6968 77.4397 34.1229 79.9671 34.8065C82.4929 35.4898 84.4925 37.3429 85.2823 39.6992C83.294 41.3037 80.5595 41.8773 78.0325 41.1937Z" fill="#690589"/>
<path fill-rule="evenodd" clip-rule="evenodd" d="M83.2554 33.9884C83.2992 33.9961 83.3422 34 83.3853 34C83.6049 34 83.8163 33.9001 83.9596 33.7226C85.9623 31.2488 86.5415 27.8356 85.4711 24.8148C84.3999 21.7939 81.8229 19.5702 78.7448 19.0115C78.4826 18.9641 78.2128 19.0652 78.0407 19.277C76.0376 21.7503 75.4584 25.1636 76.5292 28.1852C77.6003 31.2064 80.1774 33.4298 83.2554 33.9884ZM77.9356 27.6551C77.0979 25.292 77.4772 22.6392 78.9177 20.6238C81.2785 21.2071 83.2277 22.9818 84.0654 25.3445C84.9031 27.7072 84.5234 30.3599 83.0833 32.3758C80.7221 31.7928 78.7729 30.0181 77.9356 27.6551Z" fill="#690589"/>
<path fill-rule="evenodd" clip-rule="evenodd" d="M78.4261 54.1693C79.6404 54.7262 80.9407 55 82.237 55C84.1555 55 86.0641 54.4005 87.6695 53.2295C87.8998 53.0616 88.0242 52.781 87.9961 52.4943C87.6632 49.1483 85.5858 46.2117 82.5739 44.8306C79.5639 43.4499 76.021 43.8091 73.3305 45.7696C73.1002 45.9379 72.9758 46.2186 73.0039 46.5052C73.3368 49.8517 75.4142 52.7882 78.4261 54.1693ZM79.0777 52.7017C76.7224 51.6213 75.056 49.3931 74.6422 46.8141C76.8195 45.4237 79.5663 45.2192 81.9223 46.2991C84.2776 47.3794 85.944 49.6077 86.3578 52.1867C84.1809 53.5774 81.4337 53.782 79.0777 52.7017Z" fill="#690589"/>
<path fill-rule="evenodd" clip-rule="evenodd" d="M76.0575 64.4223C77.6696 65.4667 79.5713 66 81.4835 66C82.8525 66 84.2268 65.7264 85.5032 65.1721C85.7657 65.0578 85.942 64.8222 85.9667 64.5542C86.2502 61.426 84.7085 58.3698 81.9425 56.578C79.1765 54.7857 75.5568 54.4982 72.4968 55.8282C72.2343 55.9425 72.058 56.1781 72.0333 56.4461C71.7498 59.574 73.2915 62.6301 76.0575 64.4223ZM76.9825 63.1893C74.8195 61.7875 73.5593 59.4526 73.6199 57.0147C76.0607 56.1183 78.8538 56.4092 81.018 57.8114C83.1809 59.2128 84.4411 61.5477 84.3805 63.9856C81.9385 64.882 79.1462 64.5903 76.9825 63.1893Z" fill="#690589"/>
<path fill-rule="evenodd" clip-rule="evenodd" d="M77.2116 77C74.5474 77 71.9672 75.835 70.2059 73.7663C68.0779 71.2653 67.4322 67.7794 68.5199 64.6689C68.613 64.402 68.841 64.2062 69.1174 64.1545C72.3421 63.5532 75.6661 64.7336 77.7941 67.2342C79.9221 69.7348 80.5678 73.2207 79.4801 76.3312C79.387 76.5981 79.159 76.7939 78.8826 76.8456C78.3268 76.9495 77.767 77 77.2116 77ZM71.3988 72.7395C69.7345 70.7837 69.1637 68.1004 69.8609 65.6365C72.3931 65.323 74.9376 66.3053 76.6016 68.261C78.2659 70.2172 78.8371 72.9002 78.1395 75.364C75.6124 75.6755 73.0636 74.6952 71.3988 72.7395Z" fill="#690589"/>
<path d="M97.9377 31.2889C97.9053 31.0256 97.7303 30.7992 97.4788 30.6952C94.543 29.4811 91.1349 29.877 88.5854 31.7285C86.0355 33.5801 84.6859 36.6384 85.0623 39.7107C85.0947 39.974 85.2697 40.2003 85.5212 40.3044C86.6488 40.7707 87.846 41 89.0378 41C90.948 41 92.8441 40.4118 94.4146 39.2714C96.9645 37.4195 98.3141 34.3609 97.9377 31.2889Z" fill="#DEA42E"/>
<path d="M99.6343 44.3499C96.9102 42.6401 93.4794 42.5479 90.6789 44.1112C87.8791 45.6737 86.0859 48.6811 86.0003 51.9593C85.9927 52.24 86.1321 52.5038 86.3657 52.6502C87.7965 53.5485 89.4223 54 91.0492 54C92.5202 54 93.9915 53.631 95.3211 52.8889C98.1209 51.3264 99.9141 48.3191 99.9997 45.0409C100.007 44.7598 99.8675 44.4963 99.6343 44.3499Z" fill="#DEA42E"/>
<path d="M98.7481 59.2797C96.3818 57.1674 93.0328 56.4568 90.0068 57.427C86.9816 58.396 84.6867 60.9148 84.017 64.0003C83.9598 64.2647 84.049 64.5394 84.2519 64.7204C85.9184 66.2078 88.0723 67 90.2566 67C91.1745 67 92.0978 66.8602 92.9928 66.5735C96.0184 65.6044 98.3133 63.0856 98.983 60.0001C99.0402 59.7357 98.951 59.461 98.7481 59.2797Z" fill="#DEA42E"/>
<path d="M94.8709 74.14C93.079 71.4045 89.9587 69.8211 86.7091 70.0161C83.4668 70.208 80.5448 72.1466 79.0828 75.0752C78.9578 75.3263 78.9753 75.6253 79.1288 75.86C80.8229 78.4464 83.7107 80 86.7605 80C86.9366 80 87.1138 79.9949 87.2907 79.9843C90.5329 79.7924 93.4549 77.8539 94.9169 74.9253C95.0423 74.6737 95.0248 74.3747 94.8709 74.14Z" fill="#DEA42E"/>
<path fill-rule="evenodd" clip-rule="evenodd" d="M85.5212 40.3048C86.6488 40.7711 87.846 41 89.0378 41C90.948 41 92.8441 40.4114 94.4146 39.2714C96.9645 37.4197 98.3141 34.361 97.9377 31.2889C97.9053 31.0256 97.7303 30.7993 97.4788 30.6952C94.5434 29.481 91.1353 29.877 88.5854 31.7286C86.0355 33.5802 84.6859 36.6389 85.0623 39.711C85.0947 39.9744 85.2697 40.2007 85.5212 40.3048ZM93.4979 38.0857C91.5029 39.534 88.8743 39.9077 86.5403 39.101C86.3978 36.7012 87.5071 34.3621 89.5013 32.9142C91.4964 31.466 94.1242 31.0919 96.4589 31.899C96.6015 34.2984 95.4926 36.6375 93.4979 38.0857Z" fill="#690589"/>
<path fill-rule="evenodd" clip-rule="evenodd" d="M86.3657 52.6502C87.7965 53.5485 89.4223 54 91.0492 54C92.5202 54 93.9915 53.631 95.3211 52.8889C98.1209 51.326 99.9137 48.319 99.9997 45.0408C100.007 44.7596 99.8675 44.4962 99.6343 44.3498C96.9102 42.64 93.4791 42.5481 90.6789 44.1111C87.8791 45.674 86.0863 48.681 86.0003 51.9592C85.9927 52.24 86.1321 52.5034 86.3657 52.6502ZM94.5912 51.5089C92.4013 52.7311 89.7448 52.7331 87.5542 51.5392C87.7717 49.0014 89.2186 46.7129 91.4092 45.4907C93.5987 44.2685 96.2552 44.2665 98.4462 45.4604C98.2287 47.9982 96.7814 50.2867 94.5912 51.5089Z" fill="#690589"/>
<path fill-rule="evenodd" clip-rule="evenodd" d="M84.2521 64.7203C85.9185 66.2077 88.0719 67 90.2566 67C91.1745 67 92.0977 66.8602 92.9928 66.5731C96.0183 65.6036 98.3132 63.0852 98.9828 59.9997C99.0404 59.7356 98.9508 59.4605 98.7479 59.2796C96.3817 57.1673 93.0328 56.457 90.0069 57.4268C86.9817 58.3963 84.6868 60.9147 84.0172 64.0002C83.9596 64.2643 84.0492 64.5394 84.2521 64.7203ZM92.5233 65.1355C90.1571 65.8934 87.5514 65.4128 85.6161 63.8858C86.2823 61.5245 88.1101 59.623 90.4759 58.8647C92.8421 58.1065 95.4482 58.5874 97.3835 60.1145C96.7173 62.4758 94.8895 64.3773 92.5233 65.1355Z" fill="#690589"/>
<path fill-rule="evenodd" clip-rule="evenodd" d="M79.1289 75.86C80.8231 78.4464 83.7108 80 86.7606 80C86.9367 80 87.1139 79.9949 87.2908 79.9839C90.533 79.792 93.4551 77.8535 94.9171 74.9249C95.0421 74.6737 95.025 74.3747 94.8711 74.14C93.0791 71.4045 89.9588 69.8211 86.7092 70.0161C83.467 70.2084 80.5449 72.147 79.0829 75.0752C78.9579 75.3263 78.975 75.6253 79.1289 75.86ZM87.1996 78.4174C84.6629 78.5673 82.2118 77.4101 80.6941 75.3738C81.9649 73.1723 84.2648 71.7338 86.8007 71.5835C89.3348 71.4343 91.7882 72.5912 93.3063 74.627C92.0355 76.8285 89.7356 78.2671 87.1996 78.4174Z" fill="#690589"/>
<path d="M23.9172 75.0753C22.4552 72.1469 19.5331 70.2082 16.2909 70.0159C13.0482 69.8224 9.92048 71.4044 8.12892 74.1401C7.97504 74.3748 7.9579 74.6738 8.08295 74.925C9.54495 77.8537 12.467 79.7924 15.7093 79.9843C15.8865 79.9949 16.063 80 16.2394 80C19.2893 80 22.177 78.4463 23.8712 75.8597C24.0247 75.6259 24.0422 75.3264 23.9172 75.0753Z" fill="#FCE06A"/>
<path d="M16.9828 64.0005C16.3132 60.9148 14.0183 58.3962 10.9931 57.4268C7.96759 56.4569 4.6179 57.1676 2.25206 59.2796C2.04919 59.4606 1.95957 59.7356 2.01716 59.9997C2.68679 63.0854 4.98169 65.6039 8.00725 66.5734C8.90225 66.8602 9.82547 67 10.7434 67C12.9277 67 15.0819 66.2077 16.7479 64.7202C16.9508 64.5396 17.0404 64.2649 16.9828 64.0005Z" fill="#FCE06A"/>
<path d="M11.3211 44.1109C8.52171 42.5483 5.08941 42.6398 2.36566 44.3496C2.13253 44.4961 1.99265 44.7599 2.0003 45.0406C2.08629 48.3189 3.87906 51.3259 6.67887 52.8889C8.00845 53.6309 9.47982 54 10.9508 54C12.5777 54 14.2039 53.5481 15.6343 52.6502C15.8679 52.5034 16.0073 52.2399 15.9997 51.9592C15.9137 48.6809 14.1209 45.6735 11.3211 44.1109Z" fill="#FCE06A"/>
<path d="M13.4146 31.7285C10.8647 29.8773 7.457 29.4809 4.52118 30.6951C4.26975 30.7992 4.09474 31.0255 4.06226 31.2889C3.68587 34.3609 5.03551 37.4197 7.58539 39.2713C9.1559 40.4118 11.0516 41 12.9622 41C14.1536 41 15.3512 40.7711 16.4788 40.3044C16.7303 40.2003 16.9053 39.974 16.9377 39.7106C17.3141 36.6389 15.9645 33.5801 13.4146 31.7285Z" fill="#FCE06A"/>
<path fill-rule="evenodd" clip-rule="evenodd" d="M7.58539 39.2714C9.1559 40.4118 11.0516 41 12.9622 41C14.154 41 15.3512 40.7707 16.4788 40.3048C16.7303 40.2007 16.9053 39.9744 16.9377 39.711C17.3141 36.6386 15.9645 33.5802 13.4146 31.7286C10.8651 29.877 7.45738 29.481 4.52118 30.6952C4.26975 30.7993 4.09474 31.0256 4.06226 31.2889C3.68587 34.3614 5.03551 37.4197 7.58539 39.2714ZM8.50171 38.0853C6.50705 36.6371 5.39814 34.2984 5.54067 31.8986C7.8758 31.0926 10.5048 31.466 12.4983 32.9139C14.4929 34.3621 15.6019 36.7008 15.4593 39.1006C13.1253 39.9077 10.4971 39.534 8.50171 38.0853Z" fill="#690589"/>
<path fill-rule="evenodd" clip-rule="evenodd" d="M6.67887 52.8889C8.00845 53.6309 9.47982 54 10.9508 54C12.5777 54 14.2039 53.5481 15.6343 52.6502C15.8679 52.5038 16.0073 52.2399 15.9997 51.9592C15.9141 48.6809 14.1209 45.6735 11.3211 44.1109C8.52133 42.5483 5.08941 42.6398 2.36566 44.3496C2.13253 44.4961 1.99265 44.7595 2.0003 45.0406C2.0859 48.3189 3.87906 51.3263 6.67887 52.8889ZM7.40882 51.5093C5.2182 50.2867 3.77129 47.9986 3.55383 45.4607C5.74522 44.2668 8.40094 44.2688 10.5908 45.4909C12.7814 46.7135 14.2283 49.0017 14.4458 51.5395C12.2536 52.7334 9.59829 52.7315 7.40882 51.5093Z" fill="#690589"/>
<path fill-rule="evenodd" clip-rule="evenodd" d="M8.00722 66.5734C8.90224 66.8602 9.82548 67 10.7434 67C12.9277 67 15.082 66.2077 16.7481 64.7206C16.951 64.5396 17.0402 64.2649 16.983 64.0005C16.3133 60.9148 14.0184 58.3959 10.9932 57.4268C7.96756 56.4569 4.6178 57.1676 2.25192 59.2796C2.04904 59.4606 1.95981 59.7352 2.01701 59.9997C2.68666 63.0854 4.98161 65.6043 8.00722 66.5734ZM8.47627 65.1355C6.11001 64.3772 4.28221 62.4756 3.616 60.1142C5.55248 58.587 8.15785 58.1061 10.5237 58.8644C12.8896 59.6227 14.7174 61.5242 15.3836 63.8856C13.4479 65.4124 10.8422 65.8937 8.47627 65.1355Z" fill="#690589"/>
<path fill-rule="evenodd" clip-rule="evenodd" d="M15.7092 79.9843C15.8864 79.9949 16.0629 80 16.2394 80C19.2892 80 22.177 78.4463 23.8712 75.8601C24.0247 75.6255 24.0422 75.3264 23.9172 75.0753C22.4552 72.1465 19.5331 70.2078 16.2908 70.0159C13.0481 69.8224 9.92076 71.4044 8.12879 74.1401C7.9753 74.3748 7.95777 74.6738 8.08282 74.925C9.54483 77.8537 12.4669 79.7924 15.7092 79.9843ZM15.8004 78.4173C13.2643 78.267 10.9644 76.8283 9.69364 74.6267C11.2121 72.5907 13.6667 71.4342 16.1993 71.5829C18.7353 71.7332 21.0352 73.1723 22.306 75.3735C20.7882 77.4099 18.3391 78.5672 15.8004 78.4173Z" fill="#690589"/>
<path d="M27.2454 83C27.0454 83 26.8451 82.9195 26.6968 82.7599C14.215 69.3326 10.5666 49.5957 17.4019 32.479C17.5585 32.0867 17.9988 31.8968 18.3848 32.0567C18.7707 32.2163 18.9571 32.6635 18.8005 33.0558C12.1867 49.6179 15.7166 68.7143 27.7939 81.7064C28.0799 82.0144 28.0667 82.4999 27.7638 82.7906C27.6177 82.9306 27.4314 83 27.2454 83Z" fill="#690589"/>
<path d="M22.9592 19.2774C22.7875 19.0656 22.517 18.9633 22.2551 19.0119C19.1771 19.5706 16.6001 21.7943 15.5289 24.8152C14.4585 27.836 15.0377 31.2492 17.0404 33.723C17.1841 33.9005 17.3951 34 17.6147 34C17.6578 34 17.7012 33.9961 17.7445 33.9884C20.8226 33.4298 23.3996 31.2064 24.4707 28.1852C25.5415 25.1639 24.9627 21.7507 22.9592 19.2774Z" fill="#FCC24C"/>
<path fill-rule="evenodd" clip-rule="evenodd" d="M17.0405 33.723C17.1842 33.9001 17.3952 34 17.6148 34C17.6578 34 17.7012 33.9965 17.7446 33.9888C20.8226 33.4306 23.4001 31.2068 24.4708 28.1856C25.5416 25.164 24.9624 21.7508 22.9593 19.2774C22.7876 19.0652 22.5171 18.9633 22.2552 19.012C19.1772 19.5702 16.5998 21.794 15.529 24.8152C14.4586 27.836 15.0374 31.2492 17.0405 33.723ZM16.9346 25.3449C17.7723 22.9819 19.7216 21.2072 22.0824 20.6238C23.5228 22.6393 23.9025 25.292 23.0645 27.6555C22.2271 30.0181 20.2779 31.7932 17.9167 32.3762C16.4767 30.3603 16.0969 27.7079 16.9346 25.3449Z" fill="#690589"/>
<path d="M30.7535 35.5063C28.3305 33.2975 24.819 32.468 21.5896 33.342C18.3594 34.2156 15.8437 36.6747 15.0244 39.7602C14.9539 40.0245 15.0385 40.3044 15.2465 40.4937C17.0316 42.1214 19.4079 43 21.8278 43C22.6917 43 23.5609 42.888 24.4104 42.6584C27.6406 41.7848 30.1563 39.3253 30.9756 36.2398C31.0461 35.9755 30.9615 35.6956 30.7535 35.5063Z" fill="#FCC24C"/>
<path d="M28.6694 45.7695C25.9789 43.8089 22.4364 43.4501 19.4261 44.8305C16.4142 46.2117 14.3368 49.1484 14.0039 52.4946C13.9758 52.7813 14.1002 53.0619 14.3305 53.2298C15.9363 54.4 17.8445 55 19.7634 55C21.0593 55 22.3599 54.7262 23.5738 54.1693C26.5857 52.7881 28.6631 49.8514 28.996 46.5048C29.0245 46.2181 28.8997 45.9378 28.6694 45.7695Z" fill="#FCC24C"/>
<path d="M29.9667 56.446C29.942 56.178 29.7657 55.9424 29.5032 55.8281C26.4429 54.4981 22.8229 54.786 20.0574 56.5779C17.2915 58.3698 15.7498 61.4259 16.0333 64.5542C16.058 64.8222 16.2343 65.0578 16.4968 65.1721C17.7736 65.7268 19.1474 66 20.5168 66C22.4285 66 24.331 65.4667 25.9426 64.4223C28.7085 62.63 30.2502 59.5739 29.9667 56.446Z" fill="#FCC24C"/>
<path d="M32.4801 64.6686C32.387 64.4018 32.159 64.2059 31.8826 64.1542C28.6591 63.5537 25.334 64.733 23.206 67.234C21.0781 69.7346 20.432 73.2206 21.5201 76.3312C21.6131 76.5981 21.8412 76.7939 22.1175 76.8456C22.6738 76.9495 23.2331 77 23.789 77C26.4531 77 29.0332 75.835 30.7945 73.7659C32.922 71.2652 33.5678 67.7792 32.4801 64.6686Z" fill="#FCC24C"/>
<path fill-rule="evenodd" clip-rule="evenodd" d="M21.8278 43C19.4079 43 17.0316 42.1214 15.2465 40.4937C15.0385 40.3044 14.9539 40.0245 15.0244 39.7602C15.8437 36.6747 18.3594 34.2153 21.5896 33.342C24.8194 32.468 28.3309 33.2975 30.7535 35.5063C30.9615 35.6956 31.0461 35.9755 30.9756 36.2398C30.1563 39.3253 27.6406 41.7848 24.4104 42.6584C23.5605 42.888 22.6913 43 21.8278 43ZM16.7173 39.6993C18.706 41.3038 21.4401 41.8773 23.9671 41.1937C26.4933 40.5105 28.4925 38.6566 29.2823 36.3007C27.2936 34.6963 24.5599 34.1231 22.0325 34.8063C19.5067 35.4899 17.5071 37.3431 16.7173 39.6993Z" fill="#690589"/>
<path fill-rule="evenodd" clip-rule="evenodd" d="M14.3306 53.2299C15.9364 54.4004 17.8445 55 19.7634 55C21.0589 55 22.36 54.7262 23.5738 54.1697C26.5857 52.7886 28.6631 49.8519 28.996 46.5053C29.0245 46.2182 28.8997 45.9376 28.6694 45.7697C25.979 43.8091 22.4368 43.4499 19.4262 44.8306C16.4143 46.2114 14.3369 49.148 14.004 52.4946C13.9755 52.7813 14.1003 53.062 14.3306 53.2299ZM22.9219 52.7016C20.5659 53.7815 17.8188 53.577 15.6419 52.1862C16.0557 49.6071 17.7221 47.3791 20.0773 46.2988C22.4325 45.2188 25.1796 45.4226 27.3573 46.8138C26.9436 49.3929 25.2767 51.6212 22.9219 52.7016Z" fill="#690589"/>
<path fill-rule="evenodd" clip-rule="evenodd" d="M16.4968 65.1721C17.7736 65.7264 19.1471 66 20.5165 66C22.4283 66 24.3308 65.4663 25.9425 64.4223C28.7085 62.6304 30.2502 59.5738 29.9667 56.4458C29.9424 56.1775 29.7657 55.9418 29.5032 55.828C26.4428 54.4983 22.8231 54.7858 20.0575 56.5777C17.2915 58.3697 15.7498 61.4262 16.0333 64.5542C16.0576 64.8222 16.2343 65.0578 16.4968 65.1721ZM25.0175 63.1888C22.8538 64.5903 20.0607 64.8823 17.6195 63.9852C17.5585 61.5472 18.8191 59.2126 20.982 57.8104C23.1458 56.4094 25.9397 56.1173 28.3801 57.0141C28.4411 59.4524 27.1809 61.7874 25.0175 63.1888Z" fill="#690589"/>
<path fill-rule="evenodd" clip-rule="evenodd" d="M22.1174 76.8456C22.6736 76.9495 23.233 77 23.7888 77C26.453 77 29.0336 75.8354 30.7941 73.7659C32.9221 71.2653 33.5678 67.7793 32.4801 64.6688C32.387 64.4019 32.159 64.2057 31.8826 64.1544C28.6595 63.5535 25.3339 64.7331 23.2059 67.2341C21.0779 69.7347 20.4322 73.2207 21.5199 76.3312C21.613 76.5981 21.841 76.7943 22.1174 76.8456ZM29.6016 72.7394C27.9368 74.6956 25.388 75.6775 22.8609 75.364C22.1633 72.9001 22.7345 70.2171 24.3988 68.261C26.0628 66.3052 28.6104 65.3229 31.1395 65.6364C31.8367 68.1003 31.2659 70.7837 29.6016 72.7394Z" fill="#690589"/>
<path d="M100 96H78V83H100L93.272 89.5L100 96Z" fill="#DEA42E"/>
<path d="M2 83H24V96H2L8.72804 89.5L2 83Z" fill="#FCE06A"/>
<path d="M12 89L24 95V89H12Z" fill="#DEA42E"/>
<path d="M78 89H90L78 95V89Z" fill="#DEA42E"/>
<path fill-rule="evenodd" clip-rule="evenodd" d="M77.7725 97H99.2273C99.5405 97 99.8228 96.8045 99.9418 96.5049C100.061 96.2058 99.9935 95.8619 99.7707 95.6345L93.7648 89.4996L99.7707 83.3651C99.9935 83.1377 100.061 82.7938 99.9418 82.4947C99.8228 82.1955 99.5405 82 99.2273 82H77.7725C77.3461 82 77 82.3574 77 82.7978V96.2022C77 96.6426 77.3461 97 77.7725 97ZM97.3478 95.4043H78.5449V83.5961H97.3478L92.1233 88.9327C91.9765 89.0827 91.8939 89.287 91.8939 89.5C91.8939 89.713 91.9765 89.9177 92.1233 90.0673L97.3478 95.4043Z" fill="#690589"/>
<path fill-rule="evenodd" clip-rule="evenodd" d="M2.77275 97H24.2275C24.6539 97 25 96.6426 25 96.2025V82.7979C25 82.3574 24.6539 82 24.2275 82H2.77275C2.45951 82 2.17718 82.1955 2.05822 82.4947C1.93887 82.7939 2.00646 83.1377 2.22932 83.3651L8.23522 89.4998L2.22932 95.6349C2.00646 95.8623 1.93887 96.2061 2.05822 96.5053C2.17718 96.8045 2.45951 97 2.77275 97ZM23.4551 95.4043H4.65215L9.87671 90.0667C10.0235 89.9167 10.1061 89.7124 10.1061 89.4994C10.1061 89.2864 10.0235 89.0817 9.87671 88.9321L4.65215 83.5953H23.4551V95.4043Z" fill="#690589"/>
<path fill-rule="evenodd" clip-rule="evenodd" d="M23.8074 96.9058C23.928 96.9685 24.061 97 24.1939 97C24.3362 97 24.4785 96.9638 24.6054 96.8919C24.8501 96.7535 25 96.502 25 96.2305V89.7692C25 89.3446 24.6389 89 24.1939 89H11.8062C11.4374 89 11.1162 89.2384 11.0251 89.5788C10.934 89.9195 11.0964 90.2756 11.4197 90.4441L23.8074 96.9058ZM23.3879 94.9337L14.9615 90.5383H23.3879V94.9337Z" fill="#690589"/>
<path fill-rule="evenodd" clip-rule="evenodd" d="M77.3946 96.8923C77.5215 96.9642 77.6634 97 77.806 97C77.939 97 78.072 96.9685 78.1925 96.9058L90.5802 90.4442C90.9034 90.2757 91.0662 89.9196 90.9747 89.5788C90.8837 89.2385 90.562 89 90.1937 89H77.806C77.3611 89 77 89.3446 77 89.7692V96.2308C77 96.5023 77.1499 96.7539 77.3946 96.8923ZM78.6121 94.9336V90.538H87.0384L78.6121 94.9336Z" fill="#690589"/>
<path d="M12 76H90V89H12L12 76Z" fill="#FCC24C"/>
<path fill-rule="evenodd" clip-rule="evenodd" d="M11.7906 91H90.209C90.6458 91 90.9996 90.643 91 90.2021V76.7979C91 76.3574 90.6458 76 90.2094 76H11.7906C11.3542 76 11 76.3574 11 76.7979V90.2021C11 90.6426 11.3542 91 11.7906 91ZM89.4188 89.4043H12.5812V77.5957H89.4188V89.4043Z" fill="#690589"/>
</svg>
