<svg width="67" height="67" viewBox="0 0 67 67" fill="none" xmlns="http://www.w3.org/2000/svg">
<path d="M33.5 67C52.0015 67 67 52.0015 67 33.5C67 14.9985 52.0015 0 33.5 0C14.9985 0 0 14.9985 0 33.5C0 52.0015 14.9985 67 33.5 67Z" fill="#2196F3"/>
<path d="M50.7098 40.3724C47.0818 40.3724 43.622 39.5912 40.4312 38.0497C39.9309 37.8129 39.3508 37.7755 38.8211 37.9541C38.2914 38.1369 37.8584 38.5192 37.6146 39.0137L36.1011 42.1092C31.5609 39.533 27.7942 35.806 25.1836 31.3185L28.3197 29.8227C28.8242 29.5817 29.2067 29.1537 29.3917 28.6302C29.5725 28.1067 29.5388 27.5333 29.295 27.0388C27.7311 23.8893 26.9408 20.4697 26.9408 16.8798C26.9408 15.733 25.9991 14.8022 24.8388 14.8022H17.0784C15.9181 14.8022 14.9764 15.733 14.9764 16.8798C14.9764 36.3544 31.006 52.1976 50.7098 52.1976C51.8701 52.1976 52.8117 51.2669 52.8117 50.1201V42.4499C52.8117 41.3031 51.8701 40.3724 50.7098 40.3724Z" fill="#FAFAFA"/>
</svg>
