<svg width="168" height="136" viewBox="0 0 168 136" fill="none" xmlns="http://www.w3.org/2000/svg">
<path fill-rule="evenodd" clip-rule="evenodd" d="M162.4 9.0664V40.7988H154V31.7324H148.4V40.7988H142.8V22.666H137.2V40.7988H106.4V31.7324H100.8V40.7988H95.2V36.2656H89.6V40.7988H84V0H78.4V4.5332H2.8C1.2537 4.5332 0 5.54807 0 6.7998V129.196C0 130.448 1.2537 131.463 2.8 131.463H115.315C116.832 134.988 121.592 136.85 125.947 135.622C128.354 134.943 130.246 133.411 131.085 131.463H159.6C161.146 131.463 162.4 130.448 162.4 129.196V67.998H165.2C166.746 67.998 168 66.9831 168 65.7314V9.0664H162.4ZM114.8 126.93H5.6V9.0664H78.4V13.5996H14C12.4537 13.5996 11.2 14.6145 11.2 15.8662V120.13C11.2 121.382 12.4537 122.396 14 122.396H114.8V126.93ZM22.4 88.3974V79.331H16.8V117.863H51.9764L34.44 79.331H28V88.3974H22.4ZM16.8 74.7978V70.2646H33.6V74.7978H16.8ZM16.8 18.1328V65.7314H35.3752C52.0142 54.7217 61.6458 38.233 61.6 20.8368V18.1328H39.2V27.1992H33.6V18.1328H28V33.999H22.4V18.1328H16.8ZM114.8 117.863H57.96L39.2 76.6587V69.0769C56.9838 57.2008 67.2585 39.4992 67.2 20.8368V18.1328H78.4V56.665V65.7314C78.4 66.9831 79.6537 67.998 81.2 67.998H112V72.5312C112.01 74.719 113.006 76.8289 114.8 78.4651V117.863ZM123.2 131.463C124.746 131.463 126 130.448 126 129.196V90.664H120.4V129.196C120.4 130.448 121.654 131.463 123.2 131.463ZM126 86.1308H120.4V81.2757C122.229 81.705 124.171 81.705 126 81.2757V86.1308ZM123.2 77.0644C126.293 77.0644 128.8 75.0349 128.8 72.5312V67.998H117.6V72.5312C117.6 75.0349 120.107 77.0644 123.2 77.0644ZM156.8 126.93H131.6V122.396H148.4C149.946 122.396 151.2 121.382 151.2 120.13V67.998H156.8V126.93ZM131.6 78.4651V117.863H145.6V67.998H134.4V72.5312C134.39 74.719 133.394 76.8289 131.6 78.4651ZM162.4 63.4648H131.6H84V58.9316H162.4V63.4648ZM84 54.3984H162.4V45.332H84V54.3984Z" fill="#3DA6A3"/>
<rect x="115" y="4" width="6" height="11" fill="#3DA6A3"/>
<rect x="101" y="23" width="6" height="4" fill="#3DA6A3"/>
<rect x="137" y="14" width="6" height="4" fill="#3DA6A3"/>
<rect x="162" width="6" height="4" fill="#3DA6A3"/>
<rect x="22" y="38" width="6" height="4" fill="#3DA6A3"/>
<rect x="65.2972" y="104.374" width="39" height="4" transform="rotate(-45 65.2972 104.374)" fill="#3DA6A3"/>
<rect x="63.8076" y="91.364" width="22" height="4" transform="rotate(-45 63.8076 91.364)" fill="#3DA6A3"/>
<rect x="79.8076" y="104.364" width="22" height="4" transform="rotate(-45 79.8076 104.364)" fill="#3DA6A3"/>
</svg>
