<svg width="195" height="191" viewBox="0 0 195 191" fill="none" xmlns="http://www.w3.org/2000/svg">
<path d="M127.759 25.7885C124.139 24.2738 120.402 23.0373 116.586 22.0902L110.948 0H84.0517L78.4144 22.0902C71.2404 23.8766 64.3702 26.668 58.0121 30.3792L38.0646 18.6556L19.0463 37.2838L31.0154 56.8221C27.2265 63.0497 24.3766 69.7791 22.5528 76.8058L0 82.3276V108.672L22.5528 114.194C24.3766 121.221 27.2265 127.95 31.0154 134.178L19.0463 153.716L38.0646 172.344L58.0121 160.621C64.3702 164.33 71.2421 167.122 78.4144 168.91L84.0517 191H110.948L116.586 168.91C123.758 167.122 130.63 164.33 136.988 160.621L156.935 172.344L175.954 153.716L163.985 134.178C167.773 127.95 170.623 121.221 172.447 114.194L195 108.672V82.3276L172.447 76.8058C170.623 69.7791 167.773 63.0497 163.985 56.8221L175.954 37.2838L156.935 18.6556L136.988 30.3792C134.02 28.6474 130.937 27.115 127.759 25.7885Z" fill="#CCDCE5"/>
<path d="M132 55.5C132 62.9553 125.731 69 118 69C110.269 69 104 62.9553 104 55.5C104 48.0447 110.269 42 118 42C125.731 42 132 48.0447 132 55.5Z" fill="#FFC119"/>
<path d="M91 104.75V85.25C91 76.276 98.5558 69 107.875 69H128.125C137.444 69 145 76.276 145 85.25V104.75C145 108.34 141.978 111.25 138.25 111.25H131.5V147H104.5V111.25H97.75C94.0223 111.25 91 108.34 91 104.75Z" fill="#FFC119"/>
<path d="M116.5 69C118.433 69 120 70.5224 120 72.4V82.6C120 84.4776 118.433 86 116.5 86C114.567 86 113 84.4776 113 82.6V72.4C113 70.5224 114.567 69 116.5 69Z" fill="#FAAC2B"/>
<path d="M116.5 122C118.433 122 120 123.511 120 125.375V145.625C120 147.489 118.433 149 116.5 149C114.567 149 113 147.489 113 145.625V125.375C113 123.511 114.567 122 116.5 122Z" fill="#FAAC2B"/>
<path d="M131.5 93C133.433 93 135 94.4925 135 96.3333V109.667C135 111.507 133.433 113 131.5 113C129.567 113 128 111.507 128 109.667V96.3333C128 94.4925 129.567 93 131.5 93Z" fill="#FAAC2B"/>
<path d="M111 104.481V84.923C110.993 78.4483 107.069 72.5911 101 70C94.9307 72.5911 91.0065 78.4483 91 84.923V104.481C91 108.081 93.985 111 97.6667 111H104.333C108.015 111 111 108.081 111 104.481Z" fill="#FAAC2B"/>
<path d="M92 55.5C92 62.9553 85.7314 69 78 69C70.2686 69 64 62.9553 64 55.5C64 48.0447 70.2686 42 78 42C85.7314 42 92 48.0447 92 55.5Z" fill="#0093BA"/>
<path d="M50 104.75V85.25C50 76.276 57.5558 69 66.875 69H87.125C96.4442 69 104 76.276 104 85.25V104.75C104 108.34 100.978 111.25 97.25 111.25H90.5V147H63.5V111.25H56.75C53.0223 111.25 50 108.34 50 104.75Z" fill="#0093BA"/>
<path d="M77.5 69C79.4329 69 81 70.5224 81 72.4V82.6C81 84.4776 79.4329 86 77.5 86C75.5671 86 74 84.4776 74 82.6V72.4C74 70.5224 75.5671 69 77.5 69Z" fill="#047FA7"/>
<path d="M77.5 122C79.4329 122 81 123.511 81 125.375V145.625C81 147.489 79.4329 149 77.5 149C75.5671 149 74 147.489 74 145.625V125.375C74 123.511 75.5671 122 77.5 122Z" fill="#047FA7"/>
<path d="M64.5 93C66.4329 93 68 94.4925 68 96.3333V109.667C68 111.507 66.4329 113 64.5 113C62.5671 113 61 111.507 61 109.667V96.3333C61 94.4925 62.5671 93 64.5 93Z" fill="#047FA7"/>
<path d="M91.5 93C93.4329 93 95 94.4925 95 96.3333V109.667C95 111.507 93.4329 113 91.5 113C89.5671 113 88 111.507 88 109.667V96.3333C88 94.4925 89.5671 93 91.5 93Z" fill="#047FA7"/>
<path d="M46.4075 62.7187L40.7078 59.1807C41.8083 57.5252 43.0049 55.8888 44.2693 54.3212L49.6215 58.3402C48.4829 59.7496 47.4005 61.2262 46.4075 62.7187Z" fill="#0093BA"/>
<path d="M37.1346 123.764C27.6218 105.336 27.6218 83.6639 37.1346 65.2356L43.1985 68.1807C34.6389 84.7633 34.6389 104.264 43.1985 120.845L37.1346 123.764Z" fill="#0093BA"/>
<path d="M44.2693 134.679C43.0049 133.111 41.8083 131.475 40.7078 129.819L46.4075 126.281C47.4005 127.774 48.4829 129.25 49.6215 130.66L44.2693 134.679Z" fill="#0093BA"/>
<path d="M149.169 62.7187C148.176 61.2262 147.093 59.7496 145.955 58.3402L151.307 54.3212C152.571 55.8888 153.768 57.5252 154.869 59.1807L149.169 62.7187Z" fill="#0093BA"/>
<path d="M158.458 123.764L152.394 120.819C160.954 104.237 160.954 84.7362 152.394 68.1552L158.458 65.2085C167.971 83.6384 167.971 105.311 158.458 123.739V123.764Z" fill="#0093BA"/>
<path d="M151.307 134.679L145.955 130.66C147.093 129.25 148.176 127.774 149.169 126.281L154.869 129.819C153.768 131.481 152.571 133.118 151.307 134.679Z" fill="#0093BA"/>
</svg>
